# xmcd
#
# Track frame offsets:
#   150
#   43870
#   71943
#   89208
#   98830
#   120276
#   140803
#   162871
#   177845
#
# Disc length: 2651 seconds
#
# Revision: 0
# Processed by: cddbd v1.5.1PL2 Copyright (c) Steve Scherf et al.
# Submitted via: GXTranscoder 2.0.1939
#
DISCID=820a5909
DTITLE=4353463 - 46346346
DYEAR=1900
DGENRE=Books and Spoken
TTITLE0=4353
TTITLE1=34636
TTITLE2=436346
TTITLE3=43636
TTITLE4=46363
TTITLE5=3455
TTITLE6=363763
TTITLE7=773
TTITLE8=4545
EXTD=
EXTT0=
EXTT1=
EXTT2=
EXTT3=
EXTT4=
EXTT5=
EXTT6=
EXTT7=
EXTT8=
PLAYORDER=
